<?xml version="1.0" encoding="UTF-8"?>
<svg xmlns="http://www.w3.org/2000/svg" viewBox="0 0 288 288">
  <defs>
    <style>
      .cls-1 {
        fill: #e0f3fb;
      }

      .cls-2 {
        fill: #878787;
      }

      .cls-3 {
        fill: #fff;
        stroke: #231f20;
        stroke-miterlimit: 10;
        stroke-width: 2.5px;
      }
    </style>
  </defs>
  <g id="C">
    <g>
      <path class="cls-1" d="M90.61,287.5c-4.13,0-8.01-1.61-10.93-4.53L5.03,208.32c-2.92-2.92-4.53-6.8-4.53-10.93V90.61c0-4.13,1.61-8.01,4.53-10.93L79.68,5.03c2.92-2.92,6.8-4.53,10.93-4.53h106.78c4.13,0,8.01,1.61,10.93,4.53l74.65,74.65c2.92,2.92,4.53,6.8,4.53,10.93v106.78c0,4.13-1.61,8.01-4.53,10.93l-74.65,74.65c-2.92,2.92-6.8,4.53-10.93,4.53H90.61Z"/>
      <path class="cls-2" d="M197.39,1c4,0,7.75,1.56,10.58,4.38l74.65,74.65c2.83,2.83,4.38,6.58,4.38,10.58v106.77c0,4-1.56,7.75-4.38,10.58l-74.65,74.65c-2.83,2.83-6.58,4.38-10.58,4.38H90.61c-4,0-7.75-1.56-10.58-4.38L5.38,207.97c-2.83-2.83-4.38-6.58-4.38-10.58V90.61c0-4,1.56-7.75,4.38-10.58L80.03,5.38c2.83-2.83,6.58-4.38,10.58-4.38h106.77m0-1H90.61c-4.23,0-8.29,1.68-11.29,4.68L4.68,79.32c-2.99,2.99-4.68,7.05-4.68,11.29v106.77c0,4.23,1.68,8.29,4.68,11.29l74.65,74.65c2.99,2.99,7.05,4.68,11.29,4.68h106.77c4.23,0,8.29-1.68,11.29-4.68l74.65-74.65c2.99-2.99,4.68-7.05,4.68-11.29V90.61c0-4.23-1.68-8.29-4.68-11.29L208.68,4.68c-2.99-2.99-7.05-4.68-11.29-4.68h0Z"/>
    </g>
  </g>
  <g id="Carbon_22" data-name="Carbon 22">
    <circle class="cls-3" cx="166.5" cy="31.5" r="10"/>
    <circle class="cls-3" cx="121.5" cy="31.5" r="10"/>
    <circle class="cls-3" cx="166.5" cy="256.5" r="10"/>
    <circle class="cls-3" cx="121.5" cy="256.5" r="10"/>
  </g>
</svg>