<?xml version="1.0" encoding="UTF-8"?>
<svg xmlns="http://www.w3.org/2000/svg" xmlns:xlink="http://www.w3.org/1999/xlink" viewBox="0 0 288 288">
  <defs>
    <style>
      .cls-1 {
        fill: url(#linear-gradient-2);
      }

      .cls-2 {
        font-size: 114px;
      }

      .cls-2, .cls-3, .cls-4 {
        fill: #231f20;
        font-family: BellMTBold, 'Bell MT';
      }

      .cls-5 {
        fill: #fff;
        stroke: #231f20;
        stroke-width: 2.5px;
      }

      .cls-5, .cls-6 {
        stroke-miterlimit: 10;
      }

      .cls-3 {
        font-size: 28px;
      }

      .cls-6 {
        fill: #e0f3fb;
        stroke: #878787;
      }

      .cls-7 {
        fill: url(#linear-gradient-3);
      }

      .cls-8 {
        fill: url(#linear-gradient);
      }

      .cls-4 {
        font-size: 35px;
      }
    </style>
    <linearGradient id="linear-gradient" x1="181.02" y1="100.74" x2="282.2" y2="-14.86" gradientUnits="userSpaceOnUse">
      <stop offset=".3" stop-color="#fff" stop-opacity="0"/>
      <stop offset=".46" stop-color="#f3f3f3" stop-opacity=".05"/>
      <stop offset=".52" stop-color="#c8c7c7" stop-opacity=".25"/>
      <stop offset=".56" stop-color="#7e7c7c" stop-opacity=".58"/>
      <stop offset=".59" stop-color="#231f20"/>
    </linearGradient>
    <linearGradient id="linear-gradient-2" x1="99.78" y1="97.05" x2="-4.69" y2="-13.9" gradientUnits="userSpaceOnUse">
      <stop offset=".29" stop-color="#fff" stop-opacity="0"/>
      <stop offset=".43" stop-color="#f3f3f3" stop-opacity=".05"/>
      <stop offset=".48" stop-color="#c8c7c7" stop-opacity=".25"/>
      <stop offset=".52" stop-color="#7e7c7c" stop-opacity=".58"/>
      <stop offset=".54" stop-color="#231f20"/>
    </linearGradient>
    <linearGradient id="linear-gradient-3" x1="144.05" y1="116.82" x2="144.05" y2="-43.6" gradientUnits="userSpaceOnUse">
      <stop offset=".47" stop-color="#fff" stop-opacity="0"/>
      <stop offset=".6" stop-color="#f1f1f1" stop-opacity=".06"/>
      <stop offset=".66" stop-color="#c2c1c1" stop-opacity=".27"/>
      <stop offset=".71" stop-color="#726f70" stop-opacity=".64"/>
      <stop offset=".74" stop-color="#231f20"/>
    </linearGradient>
  </defs>
  <g id="Layer_1" data-name="Layer 1">
    <polygon class="cls-6" points="288 84 288 204 204 288 84 288 0 204 0 84 84 0 204 0 288 84"/>
  </g>
  <g id="Layer_4" data-name="Layer 4">
    <polygon class="cls-8" points="288 84 288.09 203.05 203.53 287.53 84 287.47 -.47 202.91 -.41 83.38 84 0 204 0 288 84"/>
    <polygon class="cls-1" points="288 84 288 204 204 288 84 288 0 204 0 84 84 0 204 0 288 84"/>
    <polygon class="cls-7" points="288 84 288.09 203.05 203.53 287.53 84 287.47 0 204 0 84 84 0 204 0 288 84"/>
  </g>
  <g id="Carbon">
    <text class="cls-2" transform="translate(104.84 180.48)"><tspan x="0" y="0">C</tspan></text>
    <text class="cls-3" transform="translate(98.97 213.07)"><tspan x="0" y="0">Carbon</tspan></text>
    <text class="cls-4" transform="translate(134.53 88.95)"><tspan x="0" y="0">6</tspan></text>
  </g>
  <g id="Carbon_1111" data-name="Carbon 1111">
    <circle class="cls-5" cx="144" cy="31.5" r="10"/>
    <circle class="cls-5" cx="144" cy="256.5" r="10"/>
    <circle class="cls-5" cx="256.5" cy="144" r="10"/>
    <circle class="cls-5" cx="31.5" cy="144" r="10"/>
  </g>
</svg>