<?xml version="1.0" encoding="UTF-8"?>
<svg xmlns="http://www.w3.org/2000/svg" viewBox="0 0 288 288">
  <defs>
    <style>
      .cls-1 {
        fill: #e5edf8;
      }

      .cls-2 {
        fill: #fae6d5;
      }

      .cls-3 {
        fill: #878687;
      }

      .cls-4 {
        fill: #878787;
      }

      .cls-5 {
        fill: #fff;
        stroke: #231f20;
        stroke-miterlimit: 10;
        stroke-width: 2.5px;
      }

      .cls-6 {
        fill: #e4f2fc;
      }

      .cls-7 {
        fill: #231f20;
      }
    </style>
  </defs>
  <g id="N">
    <g id="O">
      <g>
        <path class="cls-1" d="M90.65,287.5c-4.16,0-8.06-1.62-11-4.56L5.06,208.35c-2.94-2.94-4.56-6.85-4.56-11V90.65c0-4.16,1.62-8.06,4.56-11L79.65,5.06c2.94-2.94,6.85-4.56,11-4.56h106.69c4.16,0,8.06,1.62,11,4.56l74.59,74.59c2.94,2.94,4.56,6.85,4.56,11v106.69c0,4.16-1.62,8.06-4.56,11l-74.59,74.59c-2.94,2.94-6.85,4.56-11,4.56H90.65Z"/>
        <path class="cls-4" d="M197.35,1c4.02,0,7.81,1.57,10.65,4.41l74.59,74.59c2.84,2.84,4.41,6.63,4.41,10.65v106.69c0,4.02-1.57,7.81-4.41,10.65l-74.59,74.59c-2.84,2.84-6.63,4.41-10.65,4.41H90.65c-4.02,0-7.81-1.57-10.65-4.41L5.41,208c-2.84-2.84-4.41-6.63-4.41-10.65V90.65c0-4.02,1.57-7.81,4.41-10.65L80,5.41c2.84-2.84,6.63-4.41,10.65-4.41h106.69m0-1H90.65c-4.26,0-8.34,1.69-11.36,4.7L4.7,79.3c-3.01,3.01-4.7,7.1-4.7,11.36v106.69c0,4.26,1.69,8.34,4.7,11.36l74.59,74.59c3.01,3.01,7.1,4.7,11.36,4.7h106.69c4.26,0,8.34-1.69,11.36-4.7l74.59-74.59c3.01-3.01,4.7-7.1,4.7-11.36V90.65c0-4.26-1.69-8.34-4.7-11.36L208.7,4.7c-3.01-3.01-7.1-4.7-11.36-4.7h0Z"/>
      </g>
    </g>
    <g>
      <path class="cls-6" d="M90.65,287.5c-4.16,0-8.06-1.62-11-4.56L5.06,208.35c-2.94-2.94-4.56-6.85-4.56-11V90.65c0-4.16,1.62-8.06,4.56-11L79.65,5.06c2.94-2.94,6.85-4.56,11-4.56h106.69c4.16,0,8.06,1.62,11,4.56l74.59,74.59c2.94,2.94,4.56,6.85,4.56,11v106.69c0,4.16-1.62,8.06-4.56,11l-74.59,74.59c-2.94,2.94-6.85,4.56-11,4.56H90.65Z"/>
      <path class="cls-7" d="M197.35,1c4.02,0,7.81,1.57,10.65,4.41l74.59,74.59c2.84,2.84,4.41,6.63,4.41,10.65v106.69c0,4.02-1.57,7.81-4.41,10.65l-74.59,74.59c-2.84,2.84-6.63,4.41-10.65,4.41H90.65c-4.02,0-7.81-1.57-10.65-4.41L5.41,208c-2.84-2.84-4.41-6.63-4.41-10.65V90.65c0-4.02,1.57-7.81,4.41-10.65L80,5.41c2.84-2.84,6.63-4.41,10.65-4.41h106.69m0-1H90.65c-4.26,0-8.34,1.69-11.36,4.7L4.7,79.3c-3.01,3.01-4.7,7.1-4.7,11.36v106.69c0,4.26,1.69,8.34,4.7,11.36l74.59,74.59c3.01,3.01,7.1,4.7,11.36,4.7h106.69c4.26,0,8.34-1.69,11.36-4.7l74.59-74.59c3.01-3.01,4.7-7.1,4.7-11.36V90.65c0-4.26-1.69-8.34-4.7-11.36L208.7,4.7c-3.01-3.01-7.1-4.7-11.36-4.7h0Z"/>
    </g>
    <g>
      <path class="cls-6" d="M90.65,287.5c-4.16,0-8.06-1.62-11-4.56L5.06,208.35c-2.94-2.94-4.56-6.85-4.56-11V90.65c0-4.16,1.62-8.06,4.56-11L79.65,5.06c2.94-2.94,6.85-4.56,11-4.56h106.69c4.16,0,8.06,1.62,11,4.56l74.59,74.59c2.94,2.94,4.56,6.85,4.56,11v106.69c0,4.16-1.62,8.06-4.56,11l-74.59,74.59c-2.94,2.94-6.85,4.56-11,4.56H90.65Z"/>
      <path class="cls-3" d="M197.35,1c4.02,0,7.81,1.57,10.65,4.41l74.59,74.59c2.84,2.84,4.41,6.63,4.41,10.65v106.69c0,4.02-1.57,7.81-4.41,10.65l-74.59,74.59c-2.84,2.84-6.63,4.41-10.65,4.41H90.65c-4.02,0-7.81-1.57-10.65-4.41L5.41,208c-2.84-2.84-4.41-6.63-4.41-10.65V90.65c0-4.02,1.57-7.81,4.41-10.65L80,5.41c2.84-2.84,6.63-4.41,10.65-4.41h106.69m0-1H90.65c-4.26,0-8.34,1.69-11.36,4.7L4.7,79.3c-3.01,3.01-4.7,7.1-4.7,11.36v106.69c0,4.26,1.69,8.34,4.7,11.36l74.59,74.59c3.01,3.01,7.1,4.7,11.36,4.7h106.69c4.26,0,8.34-1.69,11.36-4.7l74.59-74.59c3.01-3.01,4.7-7.1,4.7-11.36V90.65c0-4.26-1.69-8.34-4.7-11.36L208.7,4.7c-3.01-3.01-7.1-4.7-11.36-4.7h0Z"/>
    </g>
  </g>
  <g id="Layer_36" data-name="Layer 36">
    <g>
      <path class="cls-2" d="M91.07,287.5c-4.43,0-8.59-1.72-11.72-4.86L5.35,208.65c-3.13-3.13-4.85-7.29-4.85-11.72V91.07c0-4.43,1.72-8.59,4.85-11.72L79.35,5.35c3.13-3.13,7.29-4.85,11.72-4.85h105.85c4.43,0,8.59,1.72,11.72,4.85l74,74c3.13,3.13,4.86,7.29,4.86,11.72v105.85c0,4.43-1.72,8.59-4.86,11.72l-74,74c-3.13,3.13-7.29,4.86-11.72,4.86H91.07Z"/>
      <path class="cls-3" d="M196.93,1c4.29,0,8.33,1.67,11.37,4.71l74,74c3.04,3.04,4.71,7.07,4.71,11.37v105.85c0,4.29-1.67,8.33-4.71,11.37l-74,74c-3.04,3.04-7.07,4.71-11.37,4.71H91.07c-4.29,0-8.33-1.67-11.37-4.71L5.71,208.29c-3.04-3.04-4.71-7.07-4.71-11.37V91.07c0-4.29,1.67-8.33,4.71-11.37L79.71,5.71c3.04-3.04,7.07-4.71,11.37-4.71h105.85m0-1H91.07c-4.53,0-8.87,1.8-12.08,5L5,79c-3.2,3.2-5,7.55-5,12.08v105.85c0,4.53,1.8,8.87,5,12.07l74,74c3.2,3.2,7.55,5,12.08,5h105.85c4.53,0,8.87-1.8,12.07-5l74-74c3.2-3.2,5-7.55,5-12.07V91.07c0-4.53-1.8-8.87-5-12.08L209,5c-3.2-3.2-7.55-5-12.07-5h0Z"/>
    </g>
  </g>
  <g id="Chlorine_4441" data-name="Chlorine 4441">
    <circle class="cls-5" cx="144" cy="256.5" r="10"/>
    <circle class="cls-7" cx="31.5" cy="135.5" r="10"/>
    <circle class="cls-7" cx="31.5" cy="152.5" r="10"/>
    <circle class="cls-7" cx="252.5" cy="135.5" r="10"/>
    <circle class="cls-7" cx="252.5" cy="152.5" r="10"/>
    <circle class="cls-7" cx="152.5" cy="31.5" r="10"/>
    <circle class="cls-7" cx="135.5" cy="31.5" r="10"/>
  </g>
</svg>