<?xml version="1.0" encoding="UTF-8"?>
<svg xmlns="http://www.w3.org/2000/svg" viewBox="0 0 288 288">
  <defs>
    <style>
      .cls-1 {
        fill: #f0e7f2;
      }

      .cls-2 {
        fill: #e0f3fb;
      }

      .cls-3 {
        fill: #878787;
      }

      .cls-4 {
        fill: #fff;
        stroke: #231f20;
        stroke-miterlimit: 10;
        stroke-width: 2.5px;
      }
    </style>
  </defs>
  <g id="C">
    <g>
      <path class="cls-2" d="M90.61,287.5c-4.13,0-8.01-1.61-10.93-4.53L5.03,208.32c-2.92-2.92-4.53-6.8-4.53-10.93V90.61c0-4.13,1.61-8.01,4.53-10.93L79.68,5.03c2.92-2.92,6.8-4.53,10.93-4.53h106.78c4.13,0,8.01,1.61,10.93,4.53l74.65,74.65c2.92,2.92,4.53,6.8,4.53,10.93v106.78c0,4.13-1.61,8.01-4.53,10.93l-74.65,74.65c-2.92,2.92-6.8,4.53-10.93,4.53H90.61Z"/>
      <path class="cls-3" d="M197.39,1c4,0,7.75,1.56,10.58,4.38l74.65,74.65c2.83,2.83,4.38,6.58,4.38,10.58v106.77c0,4-1.56,7.75-4.38,10.58l-74.65,74.65c-2.83,2.83-6.58,4.38-10.58,4.38H90.61c-4,0-7.75-1.56-10.58-4.38L5.38,207.97c-2.83-2.83-4.38-6.58-4.38-10.58V90.61c0-4,1.56-7.75,4.38-10.58L80.03,5.38c2.83-2.83,6.58-4.38,10.58-4.38h106.77m0-1H90.61c-4.23,0-8.29,1.68-11.29,4.68L4.68,79.32c-2.99,2.99-4.68,7.05-4.68,11.29v106.77c0,4.23,1.68,8.29,4.68,11.29l74.65,74.65c2.99,2.99,7.05,4.68,11.29,4.68h106.77c4.23,0,8.29-1.68,11.29-4.68l74.65-74.65c2.99-2.99,4.68-7.05,4.68-11.29V90.61c0-4.23-1.68-8.29-4.68-11.29L208.68,4.68c-2.99-2.99-7.05-4.68-11.29-4.68h0Z"/>
    </g>
  </g>
  <g id="H">
    <g>
      <path class="cls-1" d="M91.07,287.5c-4.43,0-8.59-1.72-11.72-4.86L5.35,208.65c-3.13-3.13-4.85-7.29-4.85-11.72V91.07c0-4.43,1.72-8.59,4.85-11.72L79.35,5.35c3.13-3.13,7.29-4.85,11.72-4.85h105.85c4.43,0,8.59,1.72,11.72,4.85l74,74c3.13,3.13,4.86,7.29,4.86,11.72v105.85c0,4.43-1.72,8.59-4.86,11.72l-74,74c-3.13,3.13-7.29,4.86-11.72,4.86H91.07Z"/>
      <path class="cls-3" d="M196.93,1c4.29,0,8.33,1.67,11.37,4.71l74,74c3.04,3.04,4.71,7.07,4.71,11.37v105.85c0,4.29-1.67,8.33-4.71,11.37l-74,74c-3.04,3.04-7.07,4.71-11.37,4.71H91.07c-4.29,0-8.33-1.67-11.37-4.71L5.71,208.29c-3.04-3.04-4.71-7.07-4.71-11.37V91.07c0-4.29,1.67-8.33,4.71-11.37L79.71,5.71c3.04-3.04,7.07-4.71,11.37-4.71h105.85m0-1H91.07c-4.53,0-8.87,1.8-12.08,5L5,79c-3.2,3.2-5,7.55-5,12.08v105.85c0,4.53,1.8,8.87,5,12.07l74,74c3.2,3.2,7.55,5,12.08,5h105.85c4.53,0,8.87-1.8,12.07-5l74-74c3.2-3.2,5-7.55,5-12.07V91.07c0-4.53-1.8-8.87-5-12.08L209,5c-3.2-3.2-7.55-5-12.07-5h0Z"/>
    </g>
  </g>
  <g id="Hydrogen_1" data-name="Hydrogen 1">
    <circle class="cls-4" cx="144" cy="31.5" r="10"/>
  </g>
</svg>