<?xml version="1.0" encoding="UTF-8"?>
<svg xmlns="http://www.w3.org/2000/svg" viewBox="0 0 288 288">
  <defs>
    <style>
      .cls-1 {
        fill: #e5edf8;
      }

      .cls-2 {
        fill: #878687;
      }

      .cls-3 {
        fill: #878787;
      }

      .cls-4 {
        fill: #fff;
        stroke: #231f20;
        stroke-miterlimit: 10;
        stroke-width: 2.5px;
      }

      .cls-5 {
        fill: #e4f2fc;
      }

      .cls-6 {
        fill: #231f20;
      }
    </style>
  </defs>
  <g id="N">
    <g id="O">
      <g>
        <path class="cls-1" d="M90.65,287.5c-4.16,0-8.06-1.62-11-4.56L5.06,208.35c-2.94-2.94-4.56-6.85-4.56-11V90.65c0-4.16,1.62-8.06,4.56-11L79.65,5.06c2.94-2.94,6.85-4.56,11-4.56h106.69c4.16,0,8.06,1.62,11,4.56l74.59,74.59c2.94,2.94,4.56,6.85,4.56,11v106.69c0,4.16-1.62,8.06-4.56,11l-74.59,74.59c-2.94,2.94-6.85,4.56-11,4.56H90.65Z"/>
        <path class="cls-3" d="M197.35,1c4.02,0,7.81,1.57,10.65,4.41l74.59,74.59c2.84,2.84,4.41,6.63,4.41,10.65v106.69c0,4.02-1.57,7.81-4.41,10.65l-74.59,74.59c-2.84,2.84-6.63,4.41-10.65,4.41H90.65c-4.02,0-7.81-1.57-10.65-4.41L5.41,208c-2.84-2.84-4.41-6.63-4.41-10.65V90.65c0-4.02,1.57-7.81,4.41-10.65L80,5.41c2.84-2.84,6.63-4.41,10.65-4.41h106.69m0-1H90.65c-4.26,0-8.34,1.69-11.36,4.7L4.7,79.3c-3.01,3.01-4.7,7.1-4.7,11.36v106.69c0,4.26,1.69,8.34,4.7,11.36l74.59,74.59c3.01,3.01,7.1,4.7,11.36,4.7h106.69c4.26,0,8.34-1.69,11.36-4.7l74.59-74.59c3.01-3.01,4.7-7.1,4.7-11.36V90.65c0-4.26-1.69-8.34-4.7-11.36L208.7,4.7c-3.01-3.01-7.1-4.7-11.36-4.7h0Z"/>
      </g>
    </g>
    <g>
      <path class="cls-5" d="M90.65,287.5c-4.16,0-8.06-1.62-11-4.56L5.06,208.35c-2.94-2.94-4.56-6.85-4.56-11V90.65c0-4.16,1.62-8.06,4.56-11L79.65,5.06c2.94-2.94,6.85-4.56,11-4.56h106.69c4.16,0,8.06,1.62,11,4.56l74.59,74.59c2.94,2.94,4.56,6.85,4.56,11v106.69c0,4.16-1.62,8.06-4.56,11l-74.59,74.59c-2.94,2.94-6.85,4.56-11,4.56H90.65Z"/>
      <path class="cls-6" d="M197.35,1c4.02,0,7.81,1.57,10.65,4.41l74.59,74.59c2.84,2.84,4.41,6.63,4.41,10.65v106.69c0,4.02-1.57,7.81-4.41,10.65l-74.59,74.59c-2.84,2.84-6.63,4.41-10.65,4.41H90.65c-4.02,0-7.81-1.57-10.65-4.41L5.41,208c-2.84-2.84-4.41-6.63-4.41-10.65V90.65c0-4.02,1.57-7.81,4.41-10.65L80,5.41c2.84-2.84,6.63-4.41,10.65-4.41h106.69m0-1H90.65c-4.26,0-8.34,1.69-11.36,4.7L4.7,79.3c-3.01,3.01-4.7,7.1-4.7,11.36v106.69c0,4.26,1.69,8.34,4.7,11.36l74.59,74.59c3.01,3.01,7.1,4.7,11.36,4.7h106.69c4.26,0,8.34-1.69,11.36-4.7l74.59-74.59c3.01-3.01,4.7-7.1,4.7-11.36V90.65c0-4.26-1.69-8.34-4.7-11.36L208.7,4.7c-3.01-3.01-7.1-4.7-11.36-4.7h0Z"/>
    </g>
    <g>
      <path class="cls-5" d="M90.65,287.5c-4.16,0-8.06-1.62-11-4.56L5.06,208.35c-2.94-2.94-4.56-6.85-4.56-11V90.65c0-4.16,1.62-8.06,4.56-11L79.65,5.06c2.94-2.94,6.85-4.56,11-4.56h106.69c4.16,0,8.06,1.62,11,4.56l74.59,74.59c2.94,2.94,4.56,6.85,4.56,11v106.69c0,4.16-1.62,8.06-4.56,11l-74.59,74.59c-2.94,2.94-6.85,4.56-11,4.56H90.65Z"/>
      <path class="cls-2" d="M197.35,1c4.02,0,7.81,1.57,10.65,4.41l74.59,74.59c2.84,2.84,4.41,6.63,4.41,10.65v106.69c0,4.02-1.57,7.81-4.41,10.65l-74.59,74.59c-2.84,2.84-6.63,4.41-10.65,4.41H90.65c-4.02,0-7.81-1.57-10.65-4.41L5.41,208c-2.84-2.84-4.41-6.63-4.41-10.65V90.65c0-4.02,1.57-7.81,4.41-10.65L80,5.41c2.84-2.84,6.63-4.41,10.65-4.41h106.69m0-1H90.65c-4.26,0-8.34,1.69-11.36,4.7L4.7,79.3c-3.01,3.01-4.7,7.1-4.7,11.36v106.69c0,4.26,1.69,8.34,4.7,11.36l74.59,74.59c3.01,3.01,7.1,4.7,11.36,4.7h106.69c4.26,0,8.34-1.69,11.36-4.7l74.59-74.59c3.01-3.01,4.7-7.1,4.7-11.36V90.65c0-4.26-1.69-8.34-4.7-11.36L208.7,4.7c-3.01-3.01-7.1-4.7-11.36-4.7h0Z"/>
    </g>
  </g>
  <g id="Nitrogen_34" data-name="Nitrogen 34">
    <circle class="cls-4" cx="144" cy="31.5" r="10"/>
    <circle class="cls-4" cx="144" cy="31.5" r="10"/>
    <circle class="cls-4" cx="180.5" cy="31.5" r="10"/>
    <circle class="cls-4" cx="107.5" cy="31.5" r="10"/>
    <g>
      <circle class="cls-6" cx="152.49" cy="252.19" r="10"/>
      <circle class="cls-6" cx="135.51" cy="252.19" r="10"/>
    </g>
  </g>
</svg>