<?xml version="1.0" encoding="UTF-8"?>
<svg id="Thicker_border" data-name="Thicker border" xmlns="http://www.w3.org/2000/svg" viewBox="0 0 288 288">
  <defs>
    <style>
      .cls-1 {
        fill: #878787;
      }
    </style>
  </defs>
  <path class="cls-1" d="M197.47,2c3.68,0,7.13,1.43,9.73,4.03l74.77,74.77c2.6,2.6,4.03,6.06,4.03,9.73v106.94c0,3.68-1.43,7.13-4.03,9.73l-74.77,74.77c-2.6,2.6-6.06,4.03-9.73,4.03H90.53c-3.68,0-7.13-1.43-9.73-4.03L6.03,207.2c-2.6-2.6-4.03-6.06-4.03-9.73V90.53c0-3.68,1.43-7.13,4.03-9.73L80.8,6.03c2.6-2.6,6.06-4.03,9.73-4.03h106.94m0-2H90.53c-4.18,0-8.19,1.66-11.15,4.62L4.62,79.38c-2.96,2.96-4.62,6.97-4.62,11.15v106.94c0,4.18,1.66,8.19,4.62,11.15l74.77,74.77c2.96,2.96,6.97,4.62,11.15,4.62h106.94c4.18,0,8.19-1.66,11.15-4.62l74.77-74.77c2.96-2.96,4.62-6.97,4.62-11.15V90.53c0-4.18-1.66-8.19-4.62-11.15L208.62,4.62c-2.96-2.96-6.97-4.62-11.15-4.62h0Z"/>
</svg>