<?xml version="1.0" encoding="UTF-8"?>
<svg xmlns="http://www.w3.org/2000/svg" xmlns:xlink="http://www.w3.org/1999/xlink" viewBox="0 0 288 288">
  <defs>
    <style>
      .cls-1 {
        fill: url(#linear-gradient-2);
      }

      .cls-2 {
        fill: #e5edf8;
      }

      .cls-3 {
        font-size: 114px;
      }

      .cls-3, .cls-4, .cls-5 {
        font-family: BellMTBold, 'Bell MT';
      }

      .cls-3, .cls-4, .cls-5, .cls-6 {
        fill: #231f20;
      }

      .cls-7 {
        letter-spacing: -.04em;
      }

      .cls-8 {
        fill: #878787;
      }

      .cls-9 {
        fill: #fff;
        stroke: #231f20;
        stroke-miterlimit: 10;
        stroke-width: 2.5px;
      }

      .cls-4 {
        font-size: 28px;
      }

      .cls-10 {
        fill: url(#linear-gradient-3);
      }

      .cls-11 {
        fill: url(#linear-gradient);
      }

      .cls-5 {
        font-size: 35px;
      }
    </style>
    <linearGradient id="linear-gradient" x1="181.02" y1="100.74" x2="282.2" y2="-14.86" gradientUnits="userSpaceOnUse">
      <stop offset=".3" stop-color="#fff" stop-opacity="0"/>
      <stop offset=".46" stop-color="#f3f3f3" stop-opacity=".05"/>
      <stop offset=".52" stop-color="#c8c7c7" stop-opacity=".25"/>
      <stop offset=".56" stop-color="#7e7c7c" stop-opacity=".58"/>
      <stop offset=".59" stop-color="#231f20"/>
    </linearGradient>
    <linearGradient id="linear-gradient-2" x1="99.78" y1="97.05" x2="-4.69" y2="-13.9" gradientUnits="userSpaceOnUse">
      <stop offset=".29" stop-color="#fff" stop-opacity="0"/>
      <stop offset=".43" stop-color="#f3f3f3" stop-opacity=".05"/>
      <stop offset=".48" stop-color="#c8c7c7" stop-opacity=".25"/>
      <stop offset=".52" stop-color="#7e7c7c" stop-opacity=".58"/>
      <stop offset=".54" stop-color="#231f20"/>
    </linearGradient>
    <linearGradient id="linear-gradient-3" x1="144.05" y1="116.82" x2="144.05" y2="-43.6" gradientUnits="userSpaceOnUse">
      <stop offset=".47" stop-color="#fff" stop-opacity="0"/>
      <stop offset=".6" stop-color="#f1f1f1" stop-opacity=".06"/>
      <stop offset=".66" stop-color="#c2c1c1" stop-opacity=".27"/>
      <stop offset=".71" stop-color="#726f70" stop-opacity=".64"/>
      <stop offset=".74" stop-color="#231f20"/>
    </linearGradient>
  </defs>
  <g id="Layer_13" data-name="Layer 13">
    <g>
      <polygon class="cls-2" points="84.21 287.5 .5 203.79 .5 84.21 84.21 .5 203.79 .5 287.5 84.21 287.5 203.79 203.79 287.5 84.21 287.5"/>
      <path class="cls-8" d="M203.59,1l83.41,83.41v119.17l-83.41,83.41H84.41L1,203.59V84.41L84.41,1h119.17m.41-1H84L0,84v120l84,84h120l84-84V84L204,0h0Z"/>
    </g>
  </g>
  <g id="Layer_4" data-name="Layer 4">
    <polygon class="cls-11" points="288 84 288.09 203.05 203.53 287.53 84 287.47 -.47 202.91 -.41 83.38 84 0 204 0 288 84"/>
    <polygon class="cls-1" points="288 84 288 204 204 288 84 288 0 204 0 84 84 0 204 0 288 84"/>
    <polygon class="cls-10" points="288 84 288.09 203.05 203.53 287.53 84 287.47 0 204 0 84 84 0 204 0 288 84"/>
  </g>
  <g id="Layer_11" data-name="Layer 11">
    <text class="cls-3" transform="translate(100.05 180.48)"><tspan x="0" y="0">O</tspan></text>
    <text class="cls-4" transform="translate(96.68 213.07)"><tspan x="0" y="0">Ox</tspan><tspan class="cls-7" x="36.75" y="0">y</tspan><tspan x="49.52" y="0">gen</tspan></text>
    <text class="cls-5" transform="translate(134.81 88.95)"><tspan x="0" y="0">8</tspan></text>
  </g>
  <g id="Layer_17" data-name="Layer 17">
    <circle class="cls-9" cx="256.5" cy="144" r="10"/>
    <circle class="cls-9" cx="144" cy="31.5" r="10"/>
    <circle class="cls-6" cx="135.5" cy="256.5" r="10"/>
    <circle class="cls-6" cx="152.5" cy="256.5" r="10"/>
    <circle class="cls-6" cx="31.5" cy="135.5" r="10"/>
    <circle class="cls-6" cx="31.5" cy="152.5" r="10"/>
  </g>
</svg>